<?xml version="1.0" encoding="utf-8"?>
<!-- Generator: Adobe Illustrator 23.1.0, SVG Export Plug-In . SVG Version: 6.00 Build 0)  -->
<svg version="1.1" id="Слой_1" xmlns="http://www.w3.org/2000/svg" xmlns:xlink="http://www.w3.org/1999/xlink" x="0px" y="0px"
	 viewBox="0 0 500 272.42" style="enable-background:new 0 0 500 272.42;" xml:space="preserve">
<style type="text/css">
	.st0{fill:#93278F;}
</style>
<g>
	<path class="st0" d="M146.49,6c3.57,0,6.9,1.27,9.38,3.58l127.44,118.5c2.36,2.2,3.66,5.08,3.66,8.13s-1.3,5.93-3.66,8.13
		l-127.44,118.5c-2.48,2.31-5.81,3.58-9.38,3.58c-3.57,0-6.9-1.27-9.38-3.58L9.66,144.34C7.3,142.14,6,139.25,6,136.21
		s1.3-5.93,3.66-8.13L137.11,9.58C139.59,7.27,142.92,6,146.49,6 M146.49,0c-4.87,0-9.75,1.73-13.47,5.19L5.58,123.69
		c-7.44,6.92-7.44,18.13,0,25.04l127.44,118.5c3.72,3.46,8.59,5.19,13.47,5.19c4.87,0,9.75-1.73,13.47-5.19l127.44-118.5
		c7.44-6.92,7.44-18.13,0-25.04L159.95,5.19C156.23,1.73,151.36,0,146.49,0L146.49,0z"/>
</g>
<g>
	<path class="st0" d="M353.51,6c3.57,0,6.9,1.27,9.38,3.58l127.44,118.5c2.36,2.2,3.66,5.08,3.66,8.13s-1.3,5.93-3.66,8.13
		l-127.44,118.5c-2.48,2.31-5.81,3.58-9.38,3.58c-3.57,0-6.9-1.27-9.38-3.58l-127.44-118.5c-2.36-2.2-3.66-5.08-3.66-8.13
		s1.3-5.93,3.66-8.13L344.13,9.58C346.62,7.27,349.95,6,353.51,6 M353.51,0c-4.87,0-9.75,1.73-13.47,5.19L212.6,123.69
		c-7.44,6.92-7.44,18.13,0,25.04l127.44,118.5c3.72,3.46,8.59,5.19,13.47,5.19s9.75-1.73,13.47-5.19l127.44-118.5
		c7.44-6.92,7.44-18.13,0-25.04L366.98,5.19C363.26,1.73,358.39,0,353.51,0L353.51,0z"/>
</g>
</svg>
