<?xml version="1.0" encoding="utf-8"?>
<!-- Generator: Adobe Illustrator 23.1.0, SVG Export Plug-In . SVG Version: 6.00 Build 0)  -->
<svg version="1.1" id="Слой_1" xmlns="http://www.w3.org/2000/svg" xmlns:xlink="http://www.w3.org/1999/xlink" x="0px" y="0px"
	 viewBox="0 0 500 272.42" enable-background="new 0 0 500 272.42" xml:space="preserve">
<g>
	<path fill="#93278F" d="M146.49,15c1.27,0,2.45,0.43,3.25,1.17l127.44,118.5c0.53,0.49,0.79,1.01,0.79,1.54s-0.27,1.05-0.79,1.54
		l-127.44,118.5c-0.8,0.74-1.99,1.17-3.25,1.17s-2.45-0.43-3.25-1.17L15.79,137.74c-0.53-0.49-0.79-1.01-0.79-1.54
		s0.27-1.05,0.79-1.54l127.44-118.5C144.04,15.43,145.22,15,146.49,15 M146.49,0c-4.87,0-9.75,1.73-13.47,5.19L5.58,123.69
		c-7.44,6.92-7.44,18.13,0,25.04l127.44,118.5c3.72,3.46,8.59,5.19,13.47,5.19c4.87,0,9.75-1.73,13.47-5.19l127.44-118.5
		c7.44-6.92,7.44-18.13,0-25.04L159.95,5.19C156.23,1.73,151.36,0,146.49,0L146.49,0z"/>
</g>
<g>
	<path fill="#93278F" d="M353.51,15c1.27,0,2.45,0.43,3.25,1.17l127.44,118.5c0.53,0.49,0.79,1.01,0.79,1.54s-0.27,1.05-0.79,1.54
		l-127.44,118.5c-0.8,0.74-1.99,1.17-3.25,1.17s-2.45-0.43-3.25-1.17l-127.44-118.5c-0.53-0.49-0.79-1.01-0.79-1.54
		s0.27-1.05,0.79-1.54l127.44-118.5C351.06,15.43,352.25,15,353.51,15 M353.51,0c-4.87,0-9.75,1.73-13.47,5.19L212.6,123.69
		c-7.44,6.92-7.44,18.13,0,25.04l127.44,118.5c3.72,3.46,8.59,5.19,13.47,5.19s9.75-1.73,13.47-5.19l127.44-118.5
		c7.44-6.92,7.44-18.13,0-25.04L366.98,5.19C363.26,1.73,358.39,0,353.51,0L353.51,0z"/>
</g>
</svg>
